HIERARCHY
ROOT Hips
{
	OFFSET 0.00000 0.00000 0.00000
	CHANNELS 6 Xposition Yposition Zposition Zrotation Yrotation Xrotation 
	JOINT LHipJoint
	{
		OFFSET 0 0 0
		CHANNELS 3 Zrotation Yrotation Xrotation
		JOINT LeftHip
		{
			OFFSET 1.57358 -1.76629 0.73362
			CHANNELS 3 Zrotation Yrotation Xrotation
			JOINT LeftKnee
			{
				OFFSET 2.40600 -6.61045 0.00000
				CHANNELS 3 Zrotation Yrotation Xrotation
				JOINT LeftAnkle
				{
					OFFSET 2.66168 -7.31291 0.00000
					CHANNELS 3 Zrotation Yrotation Xrotation
					JOINT LeftToe
					{
						OFFSET 0.20870 -0.57341 2.12506
						CHANNELS 3 Zrotation Yrotation Xrotation
						End Site
						{
							OFFSET 0.00000 -0.00000 1.10557
						}
					}
				}
			}
		}
	}
	JOINT RHipJoint
	{
		OFFSET 0 0 0
		CHANNELS 3 Zrotation Yrotation Xrotation
		JOINT RightHip
		{
			OFFSET -1.49299 -1.76629 0.73362
			CHANNELS 3 Zrotation Yrotation Xrotation
			JOINT RightKnee
			{
				OFFSET -2.43663 -6.69460 0.00000
				CHANNELS 3 Zrotation Yrotation Xrotation
				JOINT RightAnkle
				{
					OFFSET -2.62959 -7.22474 0.00000
					CHANNELS 3 Zrotation Yrotation Xrotation
					JOINT RightToe
					{
						OFFSET -0.25784 -0.70841 2.21862
						CHANNELS 3 Zrotation Yrotation Xrotation
						End Site
						{
							OFFSET -0.00000 -0.00000 1.16452
						}
					}
				}
			}
		}
	}
	JOINT lowerback
	{
		OFFSET 0 0 0
		CHANNELS 3 Zrotation Yrotation Xrotation
		JOINT Chest
		{
			OFFSET -0.00034 2.12399 -0.25450
			CHANNELS 3 Zrotation Yrotation Xrotation
			JOINT Chest2
			{
				OFFSET 0.05594 2.14379 -0.03318
				CHANNELS 3 Zrotation Yrotation Xrotation
				JOINT lowerneck
				{
					OFFSET 0 0 0
					CHANNELS 3 Zrotation Yrotation Xrotation
					JOINT Neck
					{
						OFFSET -0.09835 1.62725 0.24211
						CHANNELS 3 Zrotation Yrotation Xrotation
						JOINT Head
						{
							OFFSET 0.10849 1.66041 -0.22648
							CHANNELS 3 Zrotation Yrotation Xrotation
							End Site
							{
								OFFSET 0.04385 1.68267 -0.10541
							}
						}
					}
				}
				JOINT LeftCollar
				{
					OFFSET 0 0 0
					CHANNELS 3 Zrotation Yrotation Xrotation
					JOINT LeftShoulder
					{
						OFFSET 3.29108 0.79398 -0.68179
CHANNELS 3 Zrotation Xrotation Yrotation
						JOINT LeftElbow
						{
OFFSET 0 -5.153100 -0.000000
CHANNELS 3 Zrotation Xrotation Yrotation
							JOINT LeftWrist
							{
OFFSET 0 -3.751380 -0.000000
CHANNELS 3 Zrotation Xrotation Yrotation
								JOINT lhand
								{
									OFFSET 0 0 0
CHANNELS 3 Zrotation Xrotation Yrotation
									JOINT LFingers
									{
OFFSET 0 -0.529170 0.000000
CHANNELS 3 Zrotation Xrotation Yrotation
										End Site
										{
OFFSET 0 -0.426630 0.000000
										}
									}
								}
								JOINT LThumb
								{
OFFSET 0 0.000000 0.000000
CHANNELS 3 Zrotation Xrotation Yrotation
									End Site
									{
OFFSET 0 -0.433150 0.433150
									}
								}
							}
						}
					}
				}
				JOINT RightCollar
				{
					OFFSET 0 0 0
					CHANNELS 3 Zrotation Yrotation Xrotation
					JOINT RightShoulder
					{
						OFFSET -3.07414 1.06285 -0.44338
CHANNELS 3 Zrotation Xrotation Yrotation
						JOINT RightElbow
						{
OFFSET 0 -5.296130 0.000000
CHANNELS 3 Zrotation Xrotation Yrotation
							JOINT RightWrist
							{
OFFSET 0 -3.761440 -0.000000
CHANNELS 3 Zrotation Xrotation Yrotation
								JOINT rhand
								{
									OFFSET 0 0 0
CHANNELS 3 Zrotation Xrotation Yrotation
									JOINT RFingers
									{
OFFSET 0 -0.747320 0.000000
CHANNELS 3 Zrotation Xrotation Yrotation
										End Site
										{
OFFSET 0 -0.602510 0.000000
										}
									}
								}
								JOINT RThumb
								{
OFFSET 0 0.000000 0.000000
CHANNELS 3 Zrotation Xrotation Yrotation
									End Site
									{
OFFSET 0 -0.611710 0.611710
									}
								}
							}
						}
					}
				}
			}
		}
	}
}
MOTION
Frames: 5
Frame Time: 0.008333333333333333
11.538100 17.468500 -26.313300 -4.625600 -1.670900 2.401500 0.000000 0.000000 0.000000 -9.166400 -16.234500 -27.745800 1.212400 6.985000 19.671000 0.254600 6.318000 -13.900000 0.212600 -2.968800 -8.191800 0.000000 0.000000 0.000000 30.610500 2.422100 8.333200 -0.477800 -4.432800 12.297500 -0.550300 -1.722100 -14.742800 -0.000300 0.114000 -0.313300 3.919000 0.931900 5.703000 3.216000 1.603300 0.054900 0.988400 0.760900 -3.129600 -9.188400 -4.149200 -14.168200 5.502000 -4.776400 18.878800 2.819300 -2.359200 8.580400 0.000000 0.000000 0.000000 -3.692800 3.286900 -14.533800 12.257800 -20.190200 2.190500 15.736200 17.751300 -24.720800 0.000000 0.000000 0.000000 -7.125000 0.000000 0.000000 -14.674100 54.937300 3.639300 0.000000 0.000000 0.000000 -6.338300 -6.029000 19.952500 -18.663200 -28.998000 -4.866500 -13.330700 1.859100 -10.918900 0.000000 0.000000 0.000000 7.125000 0.000000 -0.000000 9.684600 18.852600 6.123500
11.548752 17.466930 -26.217229 -4.702142 -1.633482 2.530140 0.000000 0.000000 0.000000 -8.743676 -17.112587 -27.790182 1.188980 6.919382 19.476879 0.330938 6.624852 -15.255436 0.162209 -2.581445 -7.116246 0.000000 0.000000 0.000000 30.596844 2.067724 8.707787 -0.439358 -4.251379 11.785192 -0.523534 -1.753987 -14.414439 -0.016551 0.720467 -1.980368 3.987827 0.945624 5.615942 3.201115 1.621872 0.018848 0.934322 0.768957 -3.115534 -9.235104 -4.154799 -14.353445 5.634259 -4.793675 19.137378 2.870169 -2.356401 8.707538 0.000000 0.000000 0.000000 -3.659752 3.197589 -13.174609 12.277396 -20.219356 2.197260 11.054823 19.249988 -25.014269 0.000000 0.000000 0.000000 -7.125000 0.000000 0.000000 -19.473466 54.334998 4.576245 0.000000 0.000000 0.000000 -6.304979 -6.129304 19.916653 -18.557229 -28.864717 -4.815290 -13.917912 1.478573 -11.510755 0.000000 0.000000 0.000000 7.125000 0.000000 0.000000 9.261398 18.217728 5.977653
11.561890 17.460752 -26.117466 -4.765559 -1.640559 2.648105 0.000000 0.000000 0.000000 -8.374513 -17.923731 -27.800453 1.168009 6.860200 19.301952 0.389177 7.078899 -16.453513 0.161212 -2.576481 -7.102312 0.000000 0.000000 0.000000 30.556864 1.770603 9.090088 -0.408411 -4.101729 11.363079 -0.506201 -1.702149 -14.164684 -0.034447 1.176047 -3.233565 4.095335 0.973534 5.485414 3.161770 1.657007 0.000016 0.833117 0.785240 -3.057047 -9.298370 -4.136999 -14.479973 5.800557 -4.783931 19.289820 2.938916 -2.338611 8.787001 0.000000 0.000000 0.000000 -3.606340 3.201655 -13.134463 12.229282 -20.147530 2.180730 10.470428 19.202148 -26.026015 0.000000 0.000000 0.000000 -7.125000 0.000000 0.000000 -20.654725 55.187748 5.280077 0.000000 0.000000 0.000000 -6.229504 -6.231399 19.793169 -18.426542 -28.699698 -4.752416 -14.590348 1.246008 -11.939951 0.000000 0.000000 0.000000 7.125000 0.000000 0.000000 8.785145 17.738716 5.757404
11.577068 17.450661 -26.014945 -4.820804 -1.679030 2.756348 0.000000 0.000000 0.000000 -8.082587 -18.581633 -27.811553 1.150127 6.809330 19.151748 0.428879 7.590163 -17.415501 0.201770 -2.891593 -7.977092 0.000000 0.000000 0.000000 30.501385 1.533874 9.485709 -0.383633 -3.977417 11.013041 -0.496635 -1.585798 -13.981384 -0.053146 1.487465 -4.091223 4.234969 1.007361 5.323615 3.106628 1.698589 -0.005745 0.697914 0.804681 -2.965922 -9.373419 -4.101034 -14.554460 5.986194 -4.751967 19.344452 3.019040 -2.309230 8.822749 0.000000 0.000000 0.000000 -3.545049 3.283082 -14.181378 12.125919 -19.993285 2.145206 13.397103 17.890766 -27.540507 0.000000 0.000000 0.000000 -7.125000 0.000000 0.000000 -18.659859 57.184248 5.702082 0.000000 0.000000 0.000000 -6.122137 -6.333984 19.604827 -18.287979 -28.524329 -4.685931 -15.292142 1.156525 -12.240614 0.000000 0.000000 0.000000 7.125000 0.000000 0.000000 8.294018 17.384945 5.495027
11.590724 17.441648 -25.918259 -4.918172 -1.623040 2.858563 0.000000 0.000000 0.000000 -8.193816 -17.992578 -28.221304 1.144870 6.794240 19.107298 0.431406 7.177817 -17.072801 0.225327 -3.053691 -8.428289 0.000000 0.000000 0.000000 30.542081 1.437598 9.968179 -0.354477 -3.823922 10.582055 -0.481613 -1.575897 -13.775245 -0.063661 1.625187 -4.470931 4.355826 0.957448 5.246253 3.122537 1.636386 -0.035993 0.652986 0.771975 -2.952129 -9.414592 -4.093045 -14.614547 6.038292 -4.735989 19.324037 3.044986 -2.298374 8.827665 0.000000 0.000000 0.000000 -3.612033 3.316676 -14.477237 12.068358 -19.907047 2.125541 15.755237 17.603988 -27.477143 0.000000 0.000000 0.000000 -7.125000 0.000000 0.000000 -16.178478 57.626364 5.081276 0.000000 0.000000 0.000000 -6.076116 -6.422612 19.562903 -18.327172 -28.574106 -4.704709 -15.409789 1.259833 -12.706218 0.000000 0.000000 0.000000 7.125000 0.000000 0.000000 8.211057 16.900427 5.526436
